<svg id="Layer_1" enable-background="new 0 0 512 512" height="512" viewBox="0 0 512 512" width="512" xmlns="http://www.w3.org/2000/svg"><g><path d="m241 496.992c0 8.284 6.716 15.008 15 15.008s15-6.716 15-15v-.008c0-183.447-132.495-276.346-187.917-304.057l-61.376-30.68c-9.959-4.975-21.707 2.276-21.707 13.418 0 49.749 19.07 179.463 151.992 245.928l61.378 30.681c17.041 8.523 27.63 25.655 27.63 44.71z" fill="#bee75e"/><path d="m266.902 442.575c-22.699-147.67-134.173-224.817-183.819-249.64l-61.376-30.68c-9.959-4.975-21.707 2.276-21.707 13.418z" fill="#70d840"/><path d="m256 512c-8.284 0-15-6.716-15-15v-160.667c0-8.284 6.716-15 15-15s15 6.716 15 15v160.667c0 8.284-6.716 15-15 15z" fill="#00cb75"/><path d="m241 336.342c0-183.447 132.495-276.354 187.917-304.065l61.376-30.68c9.959-4.975 21.707 2.276 21.707 13.418 0 49.749-19.07 179.463-151.992 245.928l-61.378 30.681c-17.042 8.524-27.63 25.656-27.63 44.71 0 8.284-6.716 15.008-15 15.008s-15-6.716-15-15z" fill="#bee75e"/><path d="m241 336.342c0 8.284 6.716 15 15 15s15-6.724 15-15.008c0-19.054 10.589-36.187 27.63-44.71l61.378-30.681c132.922-66.465 151.992-196.179 151.992-245.928l-266.901 266.901c-2.642 17.182-4.099 35.305-4.099 54.426z" fill="#70d840"/></g></svg>