<svg id="Layer_1" height="512" viewBox="0 0 512 512" width="512" xmlns="http://www.w3.org/2000/svg" data-name="Layer 1"><path d="m378 352.48 86.54-86.54-30.43-20.87-81.47 81.27z" fill="#a5530e"/><path d="m352.64 326.34-78.96 78.76 22.81 28.9 81.51-81.52z" fill="#dc7722"/><path d="m212.48 181.89-41.06 41.07-23.21 23.2 45.23 57.29 45.37 57.48 34.87 44.17 78.96-78.76z" fill="#43cfc8"/><path d="m107.61 370.43h-47.69l13.39 66.97 38.78-51.7 126.72-24.77-24.62-31.19z" fill="#fdcb45"/><path d="m107.61 370.43 106.58-40.69-20.75-26.29-87.81 49.93-58.17-45.24 12.46 62.29z" fill="#fdde59"/><path d="m265.16 129.22-52.68 52.67 140.16 144.45 81.47-81.27z" fill="#43a9a3"/><path d="m472 265.25a7.51 7.51 0 0 0 -3.23-5.5l-30.48-20.9-.08-.06-17-11.67 8.84-8.87.1-.11a85.42 85.42 0 0 0 23.85-59.72 83.84 83.84 0 0 0 -143.11-59.29l-31.05 31.05-10.44-7.18a7.49 7.49 0 0 0 -9.54.88l-12 12-17.36-17.27a57.77 57.77 0 0 0 -81.7 81.71l17.32 17.33-23.21 23.21a7.51 7.51 0 0 0 -.59 9.95l39.82 50.44-75.86 43.13-54.22-42.16a7.5 7.5 0 0 0 -12 7.4l25.94 129.26a7.49 7.49 0 0 0 5.69 5.84 7.83 7.83 0 0 0 1.66.19 7.52 7.52 0 0 0 6-3l37.05-49.4 119.39-23.35 54.85 69.48a7.49 7.49 0 0 0 5.45 2.84h.44a7.5 7.5 0 0 0 5.3-2.2l168-168.06a7.52 7.52 0 0 0 2.17-5.97zm-150.5-155.51a68.86 68.86 0 0 1 117.5 48.74 70.48 70.48 0 0 1 -19.65 49.24l-10.73 10.78-116.2-79.69zm-162.09 80a42.77 42.77 0 0 1 60.49-60.49l17.32 17.32-60.5 60.43zm106.65-50.79 10.49 7.2.08.06 145.79 100-148.07 147.63-116.12-147.09zm-188.69 280.54-18.6-93.05 40 31.14 5.26 26.31zm40.63-42.58-3.93-19.69 77.49-44.06 33.76 42.76zm179.17 45.82-13.45-17 151.28-150.95 17.85 12.22z" fill="#003442"/></svg>